<svg width="37" height="37" viewBox="0 0 37 37" fill="none" xmlns="http://www.w3.org/2000/svg">
<path opacity="0.1" fill-rule="evenodd" clip-rule="evenodd" d="M18.4375 36C28.1025 36 35.9375 28.165 35.9375 18.5C35.9375 8.83502 28.1025 1 18.4375 1C8.77252 1 0.9375 8.83502 0.9375 18.5C0.9375 28.165 8.77252 36 18.4375 36Z" stroke="#B3261E" stroke-width="1.5"/>
<path d="M20.0307 14.0208H21.6391C21.787 14.0208 21.9071 13.9076 21.9071 13.7682V12.2526C21.9071 12.1132 21.787 12 21.6391 12H20.0307C18.4052 12 17.082 13.2463 17.082 14.7786V16.5468H15.2056C15.0576 16.5468 14.9375 16.6599 14.9375 16.7994V18.3149C14.9375 18.4544 15.0576 18.5675 15.2056 18.5675H17.082V23.8721C17.082 24.0115 17.2021 24.1247 17.3501 24.1247H18.9584C19.1064 24.1247 19.2265 24.0115 19.2265 23.8721V18.5675H21.103C21.2182 18.5675 21.3206 18.4978 21.3576 18.3948L21.8937 16.8792C21.9211 16.8024 21.9071 16.7175 21.8567 16.6513C21.8058 16.5857 21.7254 16.5468 21.6391 16.5468H19.2265V14.7786C19.2265 14.3608 19.5873 14.0208 20.0307 14.0208Z" fill="#B3261E"/>
</svg>
