<svg width="37" height="37" viewBox="0 0 37 37" fill="none" xmlns="http://www.w3.org/2000/svg">
<path opacity="0.1" fill-rule="evenodd" clip-rule="evenodd" d="M18.4375 36C28.1025 36 35.9375 28.165 35.9375 18.5C35.9375 8.83502 28.1025 1 18.4375 1C8.77252 1 0.9375 8.83502 0.9375 18.5C0.9375 28.165 8.77252 36 18.4375 36Z" stroke="#B3261E" stroke-width="1.5"/>
<path d="M14.421 14.9671C15.2404 14.9671 15.9046 14.3029 15.9046 13.4835C15.9046 12.6642 15.2404 12 14.421 12C13.6017 12 12.9375 12.6642 12.9375 13.4835C12.9375 14.3029 13.6017 14.9671 14.421 14.9671Z" fill="#B3261E"/>
<path d="M15.6573 15.958H13.1848C13.0483 15.958 12.9375 16.0688 12.9375 16.2053V23.623C12.9375 23.7595 13.0483 23.8703 13.1848 23.8703H15.6573C15.7938 23.8703 15.9046 23.7595 15.9046 23.623V16.2053C15.9046 16.0688 15.7938 15.958 15.6573 15.958Z" fill="#B3261E"/>
<path d="M23.0251 15.5464C21.9683 15.1844 20.6464 15.5024 19.8537 16.0726C19.8265 15.9662 19.7296 15.8871 19.6144 15.8871H17.1418C17.0053 15.8871 16.8945 15.9979 16.8945 16.1344V23.5521C16.8945 23.6886 17.0053 23.7994 17.1418 23.7994H19.6144C19.7509 23.7994 19.8616 23.6886 19.8616 23.5521V18.2212C20.2612 17.8771 20.776 17.7673 21.1973 17.9463C21.6058 18.1189 21.8397 18.5402 21.8397 19.1015V23.5521C21.8397 23.6886 21.9505 23.7994 22.087 23.7994H24.5595C24.696 23.7994 24.8068 23.6886 24.8068 23.5521V18.6035C24.7786 16.5715 23.8227 15.8194 23.0251 15.5464Z" fill="#B3261E"/>
</svg>
